<svg width="190" height="233" viewBox="0 0 190 233" fill="none" xmlns="http://www.w3.org/2000/svg">
<path d="M135.862 146.32C133.488 145.14 130.754 144.905 128.213 145.664C125.672 146.423 123.515 148.119 122.177 150.409C121.202 152.101 120.169 153.737 119.079 155.315C117.239 158.153 115.257 160.896 113.14 163.534C109.133 168.452 103.336 171.577 97.0257 172.223C90.715 172.868 84.4061 170.982 79.4862 166.977C78.2327 165.941 77.0799 164.788 76.0433 163.534C73.9776 160.952 71.998 158.241 70.1045 155.444C60.4376 140.543 53.7446 123.913 50.3943 106.469C48.465 96.9037 47.2423 87.2089 46.7363 77.4637C46.408 71.2069 48.3136 65.0371 52.1131 60.0553C55.9125 55.0734 61.3586 51.6037 67.4793 50.2654H67.7806C76.6509 48.3996 85.637 47.1343 94.6776 46.4783C103.703 47.1221 112.674 48.3729 121.532 50.2223H121.79C127.91 51.5706 133.352 55.0505 137.144 60.0405C140.936 65.0305 142.831 71.2058 142.49 77.4637C142.49 79.3572 142.49 81.2938 142.103 83.3165C141.973 84.6919 142.118 86.0794 142.529 87.3982C142.941 88.7169 143.611 89.9406 144.5 90.998C145.389 92.0553 146.48 92.9252 147.708 93.557C148.937 94.1887 150.279 94.5698 151.656 94.6778L177.133 96.7005C178.502 96.8183 179.88 96.6642 181.189 96.2471C182.498 95.8299 183.711 95.158 184.759 94.27C185.807 93.382 186.669 92.2954 187.295 91.0729C187.922 89.8504 188.3 88.516 188.408 87.1466C189.631 72.1468 189.515 57.068 188.064 42.0887C187.729 38.5813 186.692 35.1773 185.013 32.0794C183.335 28.9815 181.05 26.2531 178.295 24.0569C154.368 5.20742 110.73 0.989958 98.1204 0.000146166C95.7854 -0.171924 93.4408 -0.171924 91.1057 0.000146151C78.4963 0.989958 34.8586 5.20742 10.9309 24.0569C8.17697 26.2576 5.8904 28.9862 4.20544 32.0827C2.52049 35.1792 1.4711 38.5811 1.11888 42.0887C-1.97966 73.8487 -4.90606 177.951 82.8859 229.163C86.5111 231.276 90.6321 232.39 94.8282 232.39C99.0244 232.39 103.145 231.276 106.771 229.163C130.24 215.516 149.711 195.941 163.233 172.4C163.93 171.213 164.386 169.901 164.576 168.538C164.765 167.175 164.683 165.788 164.335 164.457C163.987 163.126 163.38 161.876 162.549 160.78C161.717 159.684 160.677 158.762 159.489 158.069L158.843 157.725L135.862 146.32Z" fill="#FDB235"/>
</svg>
