<?xml version="1.0" encoding="UTF-8"?>
<svg xmlns="http://www.w3.org/2000/svg" xmlns:xlink="http://www.w3.org/1999/xlink" viewBox="0 0 58.66 72">
  <defs>
    <radialGradient id="radial-gradient" cx="29.33" cy="37.26" fx="29.33" fy="37.26" r="21.81" gradientUnits="userSpaceOnUse">
      <stop offset="0" stop-color="#fff" stop-opacity="0"/>
      <stop offset="1" stop-color="#ffc247" stop-opacity=".8"/>
    </radialGradient>
  </defs>
  <path d="M39.11,12.47L29.33,2.06l-9.78,10.41-16.81-.96s-7.35,41.98,26.59,58.43C63.27,53.49,55.92,11.51,55.92,11.51l-16.81,.96Z" fill="#fff"/>
  <path d="M34.1,35.72c0,3.1-2.51,5.62-5.62,5.62s-5.62-2.51-5.62-5.62,2.51-5.62,5.62-5.62,5.62,2.51,5.62,5.62Zm-4.77-22.35l-4.14,4.4c-1.47,1.56-3.51,2.44-5.64,2.44-.15,0-.3,0-.44-.01l-9.28-.53c-.08,3.72,.12,8.63,1.17,13.88,2.5,12.5,8.66,21.76,18.33,27.6,9.79-5.91,15.98-15.32,18.42-28.04,.97-5.08,1.16-9.82,1.08-13.43l-9.28,.53c-.15,0-.3,.01-.44,.01-2.13,0-4.17-.88-5.64-2.44l-4.14-4.4" fill="url(#radial-gradient)"/>
  <path d="M28.49,43.4c-4.23,0-7.68-3.44-7.68-7.68s3.44-7.68,7.68-7.68,7.68,3.44,7.68,7.68-3.44,7.68-7.68,7.68Zm0-11.23c-1.96,0-3.55,1.59-3.55,3.55s1.59,3.55,3.55,3.55,3.55-1.59,3.55-3.55-1.59-3.55-3.55-3.55Z" fill="#02033b"/>
  <path d="M29.33,63.21c-.37,0-.74-.1-1.07-.3-10.19-6.15-16.68-15.89-19.29-28.96-.91-4.55-1.32-9.37-1.21-14.32,.01-.56,.25-1.09,.66-1.47,.41-.38,.96-.58,1.52-.54l9.28,.53c.11,0,.22,0,.33,0,1.56,0,3.07-.65,4.14-1.79l4.14-4.4c.39-.42,.93-.65,1.5-.65s1.11,.24,1.5,.65l4.14,4.4c1.14,1.22,2.78,1.87,4.46,1.78l9.28-.53c.56-.03,1.11,.16,1.52,.54s.65,.91,.66,1.47c.11,4.79-.27,9.45-1.12,13.87-2.55,13.3-9.07,23.2-19.38,29.42-.33,.2-.7,.3-1.07,.3ZM11.88,21.85c.04,3.9,.42,7.69,1.14,11.29,2.28,11.42,7.77,20.02,16.31,25.57,8.65-5.62,14.16-14.36,16.39-26,.66-3.47,1.02-7.11,1.06-10.86l-7.11,.41c-.19,.01-.38,.02-.56,.02-2.7,0-5.3-1.13-7.14-3.09l-2.63-2.8-2.63,2.8c-1.97,2.1-4.81,3.24-7.7,3.08l-7.11-.41Z" fill="#02033b"/>
  <path d="M29.33,72c-.31,0-.62-.07-.9-.21C13.94,64.77,4.56,52.03,1.28,34.95-1.17,22.17,.63,11.6,.71,11.15c.18-1.03,1.11-1.77,2.15-1.7l15.85,.91L27.83,.65c.39-.42,.93-.65,1.5-.65s1.11,.24,1.5,.65l9.12,9.71,15.85-.91c1.04-.06,1.97,.67,2.15,1.7,.08,.44,1.87,11.02-.57,23.79-3.27,17.09-12.66,29.83-27.15,36.85-.28,.14-.59,.21-.9,.21ZM4.53,13.68c-.39,3.48-.93,11.54,.83,20.62,3.01,15.56,11.08,26.77,23.97,33.34,12.89-6.57,20.96-17.78,23.97-33.34,1.76-9.07,1.21-17.14,.83-20.62l-14.9,.86c-.61,.04-1.2-.2-1.62-.65L29.33,5.08l-8.27,8.81c-.42,.45-1.01,.68-1.62,.65l-14.9-.86Z" fill="#02033b"/>
</svg>
