<?xml version="1.0" encoding="UTF-8"?>
<svg xmlns="http://www.w3.org/2000/svg" xmlns:xlink="http://www.w3.org/1999/xlink" viewBox="0 0 68.41 72">
  <defs>
    <radialGradient id="radial-gradient" cx="34.2" cy="38" fx="34.2" fy="38" r="30.78" gradientTransform="translate(0 74) scale(1 -1)" gradientUnits="userSpaceOnUse">
      <stop offset=".5" stop-color="#fff"/>
      <stop offset="1" stop-color="#ffc247" stop-opacity=".8"/>
    </radialGradient>
  </defs>
  <path d="M60.79,11.51C54.15,2.76,34.2,2.06,34.2,2.06c0,0-19.94,.7-26.59,9.45,0,0-7.35,41.98,26.59,58.43C68.14,53.49,60.79,11.51,60.79,11.51Z" fill="url(#radial-gradient)"/>
  <path d="M34.2,72c-.31,0-.62-.07-.9-.21-14.49-7.02-23.87-19.76-27.15-36.85-2.45-12.78-.65-23.35-.57-23.79,.06-.32,.19-.63,.39-.89C13.13,.84,33.28,.03,34.13,0h.15c.85,.03,21,.84,28.16,10.26,.2,.26,.33,.57,.39,.89,.08,.44,1.87,11.02-.57,23.79-3.27,17.09-12.66,29.83-27.15,36.85-.28,.14-.59,.21-.9,.21h0ZM9.57,12.37c-.31,2.2-1.38,11.39,.66,21.93,3.01,15.56,11.08,26.77,23.97,33.34,12.89-6.57,20.96-17.78,23.97-33.34,2.04-10.54,.98-19.72,.66-21.93-2.52-2.98-7.41-5.34-14.21-6.83-5.2-1.14-9.8-1.38-10.43-1.41-.63,.03-5.22,.27-10.42,1.41-6.8,1.49-11.69,3.85-14.21,6.83h.01Zm25.21,26.15c-4.23,0-7.68-3.44-7.68-7.68s3.44-7.68,7.68-7.68,7.68,3.44,7.68,7.68-3.44,7.68-7.68,7.68Zm0-11.23c-1.96,0-3.55,1.59-3.55,3.55s1.59,3.55,3.55,3.55,3.55-1.59,3.55-3.55-1.59-3.55-3.55-3.55Z" fill="#02033b"/>
</svg>
