<?xml version="1.0" encoding="UTF-8"?>
<svg id="Layer_1" data-name="Layer 1" xmlns="http://www.w3.org/2000/svg" xmlns:xlink="http://www.w3.org/1999/xlink" viewBox="0 0 58.66 72">
  <defs>
    <style>
      .cls-1 {
        fill: url(#radial-gradient);
      }

      .cls-1, .cls-2 {
        stroke-width: 0px;
      }

      .cls-2 {
        fill: #02033b;
      }
    </style>
    <radialGradient id="radial-gradient" cx="29.33" cy="36" fx="29.33" fy="36" r="30.78" gradientUnits="userSpaceOnUse">
      <stop offset=".5" stop-color="#fff"/>
      <stop offset="1" stop-color="#ffc247" stop-opacity=".8"/>
    </radialGradient>
  </defs>
  <path class="cls-1" d="m55.92,11.51C49.27,2.76,29.33,2.06,29.33,2.06c0,0-19.94.7-26.59,9.45,0,0-7.35,41.98,26.59,58.43C63.27,53.49,55.92,11.51,55.92,11.51Z"/>
  <path class="cls-2" d="m29.33,72c-.31,0-.62-.07-.9-.21C13.94,64.77,4.56,52.03,1.28,34.94-1.17,22.17.63,11.6.71,11.15c.06-.32.19-.63.39-.89C8.25.84,28.4.03,29.26,0c.05,0,.1,0,.14,0,.85.03,21,.84,28.16,10.26.2.26.33.57.39.89.08.44,1.87,11.02-.57,23.79-3.27,17.09-12.66,29.83-27.15,36.85-.28.14-.59.21-.9.21ZM4.7,12.37c-.31,2.2-1.38,11.39.66,21.93,3.01,15.56,11.08,26.77,23.97,33.34,12.89-6.57,20.96-17.78,23.97-33.34,2.04-10.54.97-19.72.66-21.93-2.52-2.98-7.41-5.34-14.21-6.83-5.2-1.14-9.79-1.38-10.42-1.41-.63.03-5.22.27-10.42,1.41-6.8,1.49-11.69,3.85-14.21,6.83Z"/>
</svg>