<svg width="131" height="96" viewBox="0 0 131 96" fill="none" xmlns="http://www.w3.org/2000/svg">
<g clip-path="url(#clip0_8_43)">
<path fill-rule="evenodd" clip-rule="evenodd" d="M23.0809 81.3689C22.5931 79.0492 20.7014 78.4319 18.5808 78.2328C11.7211 77.5956 10.5065 82.7429 10.5065 84.9033C10.5065 88.6169 11.5817 91.6833 18.3219 91.6833C19.5565 91.6833 22.9913 90.409 22.9913 88.3282H32.6685C32.2802 94.5009 21.916 95.9843 17.406 95.9843C8.04736 95.9843 0.0327932 94.2321 0.421077 85.0327C0.699844 78.4319 6.92233 73.8024 19.3374 74.0812C26.2369 74.2405 32.8577 76.4009 32.8875 81.3988L23.0809 81.3689Z" fill="#02033B"/>
<path fill-rule="evenodd" clip-rule="evenodd" d="M120.072 81.3689C119.594 79.0492 117.703 78.4319 115.582 78.2328C108.722 77.5956 107.508 82.7429 107.508 84.9033C107.508 88.6169 108.583 91.6833 115.323 91.6833C116.558 91.6833 119.982 90.409 119.982 88.3282H129.68C129.281 94.5009 118.927 95.9843 114.407 95.9843C105.049 95.9843 97.034 94.2321 97.4222 85.0327C97.701 78.4319 103.923 73.8024 116.339 74.0812C123.238 74.2405 129.859 76.4009 129.889 81.3988L120.072 81.3689Z" fill="#02033B"/>
<path fill-rule="evenodd" clip-rule="evenodd" d="M34.5601 74.4994H47.1345L57.8671 89.5927H57.9467V74.4994H66.0111V95.407H53.9643L42.7141 80.3535H42.6245V95.4269H34.5601V74.4994Z" fill="#02033B"/>
<path fill-rule="evenodd" clip-rule="evenodd" d="M68.5001 74.4994H83.7626C91.1101 74.4994 95.421 76.5503 95.421 79.6566C95.421 81.4885 93.619 83.7585 89.5868 84.4255V84.4852C94.4354 84.764 96.2275 87.8404 96.2275 89.6823C96.2275 93.3759 92.0161 95.4269 83.8124 95.4269H68.5001V74.4994ZM77.331 82.6235H79.8698C83.7725 82.6235 85.8434 82.3148 85.8434 80.692C85.8434 79.0692 84.121 78.3723 80.6165 78.3723H77.341V82.6235H77.331ZM77.331 91.0363H79.8698C84.569 91.0363 86.2914 90.5385 86.2914 88.9157C86.2914 87.2928 84.121 86.6059 80.6065 86.6059H77.341V91.0363H77.331Z" fill="#02033B"/>
<path fill-rule="evenodd" clip-rule="evenodd" d="M108.573 42.4113L72.582 66.4848L84.7084 37.6623L90.453 24.2515C92.7031 19.9506 97.1136 17.2027 101.962 17.0733C106.522 17.0434 110.773 19.3731 113.192 23.236C115.841 27.2184 115.99 33.6699 113.342 37.6722C112.097 39.5638 110.475 41.1767 108.583 42.4212" fill="#02033B"/>
<path fill-rule="evenodd" clip-rule="evenodd" d="M90.6521 19.6817L72.8508 61.7656L72.0942 57.1759L66.708 22.6784C66.4491 20.6872 67.3551 18.7259 69.0377 17.6208L71.5864 16.0975C71.7358 15.5699 70.9891 15.3906 70.6406 15.2214L65.6626 15.1716C65.0155 8.01327 70.2921 1.69122 77.4505 1.03412C79.5512 0.844957 81.6718 1.16355 83.6133 1.97994C88.4419 4.11052 91.598 8.83961 91.7174 14.1163C91.7174 16.0179 91.359 17.9095 90.6521 19.6717" fill="#02033B"/>
<path fill-rule="evenodd" clip-rule="evenodd" d="M56.4633 61.9149L38.9408 19.7314C37.0392 14.9924 37.8556 9.59624 41.0713 5.63376C44.3369 1.8007 49.514 0.187832 54.3825 1.47215C58.9025 2.80626 62.407 6.39041 63.6316 10.9403C64.0398 12.6925 64.1493 14.4946 63.9502 16.2867L56.4633 61.9149Z" fill="#02033B"/>
<path fill-rule="evenodd" clip-rule="evenodd" d="M19.0089 40.888C15.4845 37.9211 13.7223 33.3513 14.3495 28.7914C15.0365 23.7139 18.4912 19.4328 23.3099 17.6806C27.9693 16.1673 33.0867 17.4118 36.5314 20.8963C37.8556 22.2305 38.9009 23.8234 39.6078 25.5657L56.533 66.5545L19.0089 40.888Z" fill="#02033B"/>
<path fill-rule="evenodd" clip-rule="evenodd" d="M15.1559 70.8355C10.616 70.3975 6.6336 67.6098 4.66231 63.488C2.46204 58.8186 2.97975 53.3229 6.01633 49.1414C9.28189 45.2287 13.9811 43.2574 18.7699 44.2331C20.5919 44.5716 22.3342 45.2984 23.8674 46.3438L60.3063 70.8355H15.1559Z" fill="#02033B"/>
<path fill-rule="evenodd" clip-rule="evenodd" d="M114.089 70.8355C118.638 70.4074 122.631 67.6098 124.582 63.478C126.782 58.8087 126.265 53.313 123.238 49.1414C119.973 45.2287 115.273 43.2574 110.475 44.2331C108.653 44.5816 106.91 45.2984 105.377 46.3438L68.9381 70.8355H114.089Z" fill="#02033B"/>
</g>
<defs>
<clipPath id="clip0_8_43">
<rect width="129.428" height="95" fill="white" transform="translate(0.411102 0.984375)"/>
</clipPath>
</defs>
</svg>
