<svg width="157" height="54" viewBox="0 0 157 54" fill="none" xmlns="http://www.w3.org/2000/svg">
<g clip-path="url(#clip0_8_382)">
<path d="M31.4838 33.9808C30.9291 33.7119 30.2926 33.6654 29.7048 33.8508C29.117 34.0362 28.6224 34.4396 28.3224 34.9781C28.0831 35.367 27.8437 35.746 27.5944 36.115C27.1668 36.7557 26.7074 37.3748 26.2182 37.9699C25.6952 38.6032 25.0386 39.113 24.2956 39.463C23.5525 39.8131 22.7413 39.9946 21.92 39.9946C21.0986 39.9946 20.2874 39.8131 19.5444 39.463C18.8013 39.113 18.1448 38.6032 17.6217 37.9699C17.1431 37.3715 16.6843 36.7432 16.2455 36.095C14.0035 32.644 12.4555 28.7892 11.688 24.7461C11.2327 22.5304 10.946 20.2835 10.8303 18.0245C10.7543 16.5746 11.1959 15.1449 12.0763 13.9904C12.9568 12.8359 14.2188 12.0319 15.6372 11.7218H15.717C17.7691 11.2894 19.8482 10.9962 21.9399 10.8442C24.0314 10.9934 26.1104 11.2832 28.1629 11.7118H28.2327C29.6491 12.0263 30.9079 12.8335 31.7846 13.9897C32.6613 15.1458 33.099 16.5757 33.0196 18.0245C33.0196 18.4633 33.0196 18.9121 32.9298 19.3808C32.8997 19.6995 32.9334 20.021 33.0287 20.3266C33.1241 20.6322 33.2794 20.9158 33.4854 21.1608C33.6915 21.4059 33.9442 21.6074 34.2289 21.7538C34.5136 21.9002 34.8246 21.9885 35.1438 22.0136L41.0476 22.4823C41.3647 22.5096 41.6841 22.4739 41.9874 22.3772C42.2907 22.2806 42.5719 22.1249 42.8147 21.9191C43.0576 21.7133 43.2574 21.4615 43.4025 21.1782C43.5476 20.8949 43.6353 20.5857 43.6604 20.2684C43.9413 16.7958 43.918 13.3054 43.5906 9.83693C43.509 9.0241 43.2658 8.23577 42.8754 7.51822C42.4849 6.80066 41.955 6.16834 41.3168 5.65837C35.772 1.28036 25.6697 0.303038 22.7377 0.073666C22.1966 0.0337917 21.6533 0.0337917 21.1122 0.073666C18.1902 0.303038 8.07788 1.28036 2.53307 5.6484C1.89463 6.15734 1.36517 6.78958 0.976249 7.50747C0.587324 8.22535 0.346888 9.01418 0.26927 9.82695C-0.458736 17.1868 -1.12691 41.3107 19.1575 53.1782C19.9976 53.6679 20.9526 53.926 21.925 53.926C22.8973 53.926 23.8523 53.6679 24.6924 53.1782C30.1503 50.0206 34.6829 45.4846 37.8364 40.0243C38.1592 39.4672 38.2481 38.805 38.0836 38.1825C37.9191 37.5601 37.5146 37.0282 36.9588 36.7033L36.8092 36.6236L31.4838 33.9808Z" fill="#FFC247"/>
<path d="M95.8874 44.532C89.7941 44.532 85.426 40.2437 85.426 33.8413C85.3821 32.4892 85.6055 31.1418 86.0833 29.8763C86.561 28.6107 87.2838 27.4519 88.2103 26.4661C89.1367 25.4804 90.2485 24.6872 91.4821 24.1319C92.7156 23.5767 94.0466 23.2703 95.3987 23.2303H96.0569C102.539 23.2303 106.159 27.8975 106.159 34.3499C106.159 34.5792 106.159 35.048 106.159 35.5466H91.2002C91.3261 36.727 91.8852 37.8188 92.7693 38.6109C93.6535 39.403 94.8 39.8391 95.9871 39.8348C96.7389 39.8984 97.4942 39.7643 98.1782 39.446C98.8622 39.1276 99.451 38.636 99.8864 38.0198H105.87C104.633 41.7995 101.083 44.542 95.9472 44.542M100.495 31.8467C100.431 30.6995 99.9259 29.6214 99.0861 28.8373C98.2462 28.0532 97.136 27.6236 95.9871 27.6383C94.8074 27.6139 93.6615 28.0326 92.7753 28.8117C91.8892 29.5908 91.3272 30.6737 91.2002 31.8467H100.495Z" fill="#02033B"/>
<path d="M113.808 27.0499C114.965 24.5866 117.279 23.6193 119.902 23.5395V29.1342C118.846 29.085 117.789 29.2028 116.77 29.4832C115.344 29.9419 113.998 30.9093 113.998 35.1577V43.8439H108.014V23.8985H113.798L113.808 27.0499Z" fill="#02033B"/>
<path d="M133.285 39.1068H134.482L136.536 43.814H131.639C125.975 43.9336 124.818 40.5329 124.818 35.9056V29.1441H121.457V24.0082H124.818V19.5205L130.642 16.9376V24.0082H134.731V29.184H130.642V34.9383C130.642 37.6409 130.752 39.1368 133.265 39.1368" fill="#02033B"/>
<path d="M135.549 33.8413C135.549 27.0499 140.635 23.2702 146.309 23.2702C151.984 23.2702 157 27.0499 157 33.8413C157 40.6327 151.944 44.4921 146.309 44.4921C140.675 44.4921 135.549 40.6726 135.549 33.8413ZM146.309 39.8249C149.361 39.8249 151.296 37.1223 151.296 33.8413C151.296 30.5603 149.371 27.8577 146.309 27.8577C143.248 27.8577 141.323 30.5603 141.323 33.8413C141.323 37.1223 143.258 39.8249 146.309 39.8249Z" fill="#02033B"/>
<path d="M70.9457 44.532C63.0374 44.532 56.9839 39.0869 56.9839 30.291C57.0139 21.6546 63.1072 16.03 71.0554 16.03C77.9565 16.03 82.4741 19.4208 84.2094 25.524H78.1161C76.7299 22.4325 74.127 21.2757 71.0554 21.2757C66.6973 21.2757 63.1869 24.9057 63.1869 30.3409C63.1869 35.776 66.7372 39.3163 71.0554 39.3163C74.8749 39.3163 76.9592 37.8503 78.0363 35.1178H84.0897C82.5539 41.2111 77.6473 44.5619 70.8958 44.5619" fill="#02033B"/>
</g>
<defs>
<clipPath id="clip0_8_382">
<rect width="157" height="53.8525" fill="white" transform="translate(0 0.0737476)"/>
</clipPath>
</defs>
</svg>
