<svg width="131" height="96" viewBox="0 0 131 96" fill="none" xmlns="http://www.w3.org/2000/svg">
<g clip-path="url(#clip0_8_74)">
<path fill-rule="evenodd" clip-rule="evenodd" d="M128.515 38.3544C128.595 35.8544 126.625 33.7544 124.125 33.6744H123.915C122.115 33.6744 120.225 34.6744 120.515 37.1744C120.695 38.7644 123.175 39.3344 124.515 39.7644C128.515 41.0144 130.095 42.5344 130.095 45.4944C130.095 48.4544 127.635 50.4944 123.245 50.4944C121.095 50.4944 118.705 50.0644 117.245 48.7444L116.735 44.4544H117.145C117.785 48.2744 119.435 49.7744 123.395 49.8744C125.925 49.9344 126.675 48.4944 126.665 46.7144C126.655 44.9344 124.735 44.1644 122.465 43.4144C119.215 42.4144 117.215 41.1344 117.215 38.0244C117.215 34.9144 119.965 32.9044 124.035 32.9044C125.715 32.9544 127.365 33.4144 128.835 34.2444V38.3144L128.515 38.3544Z" fill="#02033B"/>
<path fill-rule="evenodd" clip-rule="evenodd" d="M114.305 34.5644C115.015 34.0844 115.685 33.5544 116.305 32.9544C116.995 32.3744 117.435 31.5544 117.525 30.6544C117.525 30.4844 117.475 30.3044 117.375 30.1644C117.265 30.0344 117.095 29.9644 116.925 29.9744C116.715 30.0144 116.495 30.0344 116.285 30.0444C115.695 30.0644 115.115 29.8244 114.705 29.3944C114.295 28.9444 114.085 28.3444 114.125 27.7344C114.085 27.0644 114.325 26.4144 114.775 25.9244C115.255 25.4444 115.915 25.1844 116.595 25.2244C117.405 25.2044 118.185 25.5444 118.725 26.1444C119.265 26.7544 119.565 27.5344 119.595 28.3444C119.565 29.9744 118.895 31.5244 117.725 32.6544C116.795 33.5844 115.735 34.3744 114.575 34.9944L114.305 34.5644Z" fill="#02033B"/>
<path fill-rule="evenodd" clip-rule="evenodd" d="M77.295 58.4344V63.9944C77.295 65.6744 78.045 66.1944 78.775 66.1944C79.245 66.1644 79.695 66.0644 80.125 65.8744L80.235 66.2244C79.425 66.7344 78.495 67.0144 77.535 67.0444C76.745 67.0444 74.795 66.7644 74.795 64.8544V58.4344H73.255V57.8144H75.065L76.775 55.1544H77.295V57.8144H80.035V58.4444H77.295V58.4344Z" fill="#02033B"/>
<path fill-rule="evenodd" clip-rule="evenodd" d="M71.785 60.4544C71.835 59.1044 70.785 57.9744 69.435 57.9244H69.415H69.295C68.395 57.8144 67.565 58.4544 67.455 59.3644C67.455 59.3644 67.455 59.3744 67.455 59.3844C67.435 59.5244 67.435 59.6744 67.455 59.8144C67.555 60.6744 68.905 60.9844 69.635 61.2144C71.795 61.8944 72.635 62.7144 72.635 64.3144C72.635 65.9144 71.305 67.0344 68.935 67.0344C67.775 67.0944 66.635 66.7344 65.705 66.0344L65.425 63.7244H65.645C65.995 65.7844 66.885 66.5944 69.025 66.6544C69.845 66.8044 70.625 66.2644 70.785 65.4444C70.805 65.2744 70.805 65.1144 70.785 64.9444C70.785 63.9444 69.785 63.5744 68.515 63.1644C66.755 62.6044 65.675 61.9244 65.675 60.2544C65.675 58.5844 67.165 57.4844 69.355 57.4844C70.265 57.5144 71.155 57.7644 71.955 58.2044V60.4044L71.785 60.4544Z" fill="#02033B"/>
<path fill-rule="evenodd" clip-rule="evenodd" d="M110.575 33.2244C109.235 33.2244 107.575 33.9644 105.855 36.1344V33.2244L100.055 34.0744V34.5544C100.055 34.5544 101.335 34.4044 101.855 34.3644V48.1644C101.855 48.7344 101.765 49.4644 100.795 49.4644H99.855V50.1044H108.125V49.4744H107.125C106.495 49.5544 105.925 49.1044 105.845 48.4744C105.825 48.3644 105.825 48.2644 105.845 48.1544V38.5144C106.065 36.3944 107.395 35.1744 108.005 35.1644C109.175 35.1644 109.135 35.9944 110.175 36.4844C111.045 36.9144 112.095 36.5644 112.525 35.6944C112.625 35.4844 112.685 35.2544 112.695 35.0144C112.695 34.0144 112.015 33.2544 110.565 33.2544" fill="#02033B"/>
<path fill-rule="evenodd" clip-rule="evenodd" d="M32.825 33.8444C37.385 33.8444 37.195 39.8444 37.195 39.9044C37.235 40.2844 36.955 40.6344 36.575 40.6744C36.575 40.6744 36.565 40.6744 36.555 40.6744C36.495 40.6744 36.445 40.6744 36.385 40.6744H29.585C29.175 40.6944 28.815 40.3744 28.785 39.9644V39.8144C28.865 37.8144 29.395 33.8144 32.785 33.8144M29.515 41.4444H40.685C40.795 40.4444 40.745 39.4344 40.535 38.4444C40.335 37.3944 39.885 36.3944 39.225 35.5544C38.125 34.2244 36.205 33.2244 32.975 33.2244C27.125 33.2244 24.125 36.9544 24.125 42.0344C24.125 47.1144 26.815 50.6444 33.055 50.6444C37.195 50.6444 39.365 48.7044 40.475 45.9644L40.025 45.7444C38.565 48.6444 36.765 49.7444 33.895 49.7444C29.675 49.7444 28.795 45.7444 28.755 42.3844C28.755 42.3544 28.755 42.3144 28.755 42.2844C28.725 41.8644 29.035 41.4844 29.465 41.4544H29.575" fill="#02033B"/>
<path fill-rule="evenodd" clip-rule="evenodd" d="M59.875 57.8144C62.405 57.8144 62.315 61.0544 62.315 61.0644C62.325 61.2844 62.165 61.4644 61.955 61.4944H58.125C57.895 61.5044 57.695 61.3244 57.675 61.0944V61.0244C57.675 59.9144 58.005 57.8344 59.905 57.8244M58.095 62.0444H64.265C64.305 61.4944 64.265 60.9444 64.125 60.4044C64.015 59.8244 63.775 59.2744 63.405 58.8044C62.525 57.8544 61.245 57.3544 59.955 57.4744C57.445 57.2644 55.245 59.1344 55.035 61.6444C55.035 61.6444 55.035 61.6444 55.035 61.6544C55.015 61.8944 55.015 62.1444 55.035 62.3844C55.035 65.3144 56.515 67.1544 59.975 67.1544C61.795 67.3344 63.505 66.2544 64.125 64.5344L63.805 64.4144C63.275 65.8144 61.905 66.7144 60.405 66.6344C58.075 66.6344 57.655 64.4344 57.635 62.5544C57.615 62.3144 57.795 62.1044 58.035 62.0844" fill="#02033B"/>
<path fill-rule="evenodd" clip-rule="evenodd" d="M90.685 33.8344C95.235 33.8344 95.055 39.8844 95.055 39.9044C95.085 40.2944 94.795 40.6344 94.405 40.6744C94.345 40.6744 94.295 40.6744 94.235 40.6744H87.435C87.015 40.6944 86.665 40.3744 86.635 39.9544V39.8544C86.725 37.8544 87.255 33.8544 90.635 33.8544M87.355 41.4844H98.535C98.645 40.4844 98.585 39.4744 98.375 38.4844C98.205 37.4444 97.775 36.4544 97.125 35.6144C95.965 34.2244 94.065 33.2244 90.835 33.2244C84.995 33.2244 81.955 37.0044 81.955 42.0844C81.955 47.1644 84.635 50.6944 90.875 50.6944C95.025 50.6944 97.195 48.7544 98.305 46.0144L97.865 45.7944C96.395 48.6944 94.595 49.7944 91.725 49.7944C87.505 49.7944 86.625 45.7944 86.585 42.4344C86.585 42.4044 86.585 42.3644 86.585 42.3344C86.545 41.9144 86.855 41.5444 87.275 41.5044H87.295H87.405" fill="#02033B"/>
<path fill-rule="evenodd" clip-rule="evenodd" d="M9.545 37.3444H7.845C7.355 37.4044 6.905 37.0444 6.845 36.5544C6.845 36.5544 6.845 36.5544 6.845 36.5444V27.4344C7.545 27.3244 8.265 27.2844 8.975 27.3044C11.635 27.3044 14.685 28.1544 14.685 32.7244C14.685 36.1244 12.885 37.3444 9.525 37.3444M13.685 37.9244C16.825 37.4344 19.055 35.6744 19.035 32.4044C19.035 29.3044 17.315 26.6544 11.035 26.6544H0.125V27.2244H1.315C1.935 27.1944 2.465 27.6644 2.495 28.2844C2.495 28.3644 2.495 28.4344 2.495 28.5144V48.2244C2.595 48.8844 2.145 49.4944 1.495 49.6044H0.125V50.1444H9.345V49.6044H8.235C7.565 49.6844 6.955 49.2144 6.865 48.5444C6.845 48.4344 6.845 48.3144 6.865 48.2044V39.2044C6.865 39.2044 6.865 39.1744 6.865 39.1544C6.865 38.5744 7.095 38.1544 7.865 38.1544H9.125C11.125 38.1544 14.585 39.4544 15.605 44.9644C16.975 52.4144 23.405 54.0244 29.725 53.7544V53.4144C17.035 52.5244 23.555 38.8144 13.725 37.9144" fill="#02033B"/>
<path fill-rule="evenodd" clip-rule="evenodd" d="M42.185 56.6444C42.835 56.7244 43.435 56.2644 43.515 55.6144C43.515 55.6144 43.515 55.6044 43.515 55.5944V55.4844C43.545 54.8144 43.025 54.2544 42.355 54.2244C42.345 54.2244 42.335 54.2244 42.325 54.2244H42.185C41.515 54.1744 40.915 54.6744 40.855 55.3444V55.4444C40.855 56.1044 41.385 56.6544 42.045 56.6544C42.075 56.6544 42.095 56.6544 42.125 56.6544H42.235" fill="#02033B"/>
<path fill-rule="evenodd" clip-rule="evenodd" d="M43.855 66.4344C43.595 66.4244 43.385 66.2044 43.395 65.9344C43.395 65.9344 43.395 65.9344 43.395 65.9244V57.8644L39.865 58.4644L40.215 58.8544L40.825 58.7944V65.9044C40.855 66.1644 40.665 66.4044 40.405 66.4344H39.765V66.8644H44.685V66.4344H43.865H43.855Z" fill="#02033B"/>
<path fill-rule="evenodd" clip-rule="evenodd" d="M53.815 46.0944C53.815 48.3744 51.405 49.2344 50.215 49.0944C48.125 48.8744 47.295 47.2244 47.295 45.3244C47.135 43.8544 48.085 42.4944 49.525 42.1544C50.955 41.6044 52.985 40.9744 53.805 40.5144V46.0944H53.815ZM60.135 48.8944C59.785 49.2244 59.335 49.4344 58.855 49.4744C58.385 49.5144 57.965 49.1844 57.905 48.7144C57.855 47.8344 57.835 37.9844 57.835 37.9844C57.835 35.9844 56.565 33.2144 50.935 33.2144C46.665 33.2144 43.785 35.2144 43.655 37.1444C43.515 38.0244 44.125 38.8544 45.005 38.9944C45.115 39.0044 45.215 39.0044 45.325 38.9944H45.565C45.645 38.9844 45.715 38.9644 45.795 38.9344L45.955 38.8844C46.585 38.5444 47.015 37.9344 47.135 37.2244C47.515 34.9044 48.355 33.6944 50.825 33.7744C53.715 33.8544 53.825 35.4144 53.825 38.0544V38.4144C53.825 38.7244 53.635 39.8544 51.695 40.6444C49.955 41.0344 48.205 41.3444 46.435 41.5544C44.365 41.8744 42.865 43.7144 42.985 45.8044C42.985 48.3444 44.905 50.4544 48.385 50.5544C51.145 50.6344 52.715 49.1344 53.825 48.4044C54.145 49.5344 55.095 50.3844 56.255 50.5644C57.755 50.7744 59.275 50.3144 60.405 49.3144L60.135 48.8944Z" fill="#02033B"/>
<path fill-rule="evenodd" clip-rule="evenodd" d="M74.535 45.1444C74.585 45.7544 74.495 46.3644 74.265 46.9244C73.555 48.5744 72.035 49.0444 70.265 49.0444C66.945 49.0444 66.025 45.4844 66.025 41.5944C66.025 37.2744 67.025 34.2744 70.575 34.2744C72.135 34.2044 73.595 35.0744 74.265 36.4944C74.525 37.1844 74.625 37.9144 74.565 38.6444L74.535 45.1444ZM79.955 49.3944C78.875 49.3944 78.535 48.8644 78.535 47.9644V25.3644L71.875 26.0844V26.6944L74.535 26.5344V35.5344C73.655 34.1544 72.165 33.2744 70.535 33.1844C68.045 33.0144 65.585 33.8644 63.735 35.5444C61.955 37.2644 61.005 39.6744 61.125 42.1444C61.125 47.0344 63.705 50.4544 68.705 50.4544C70.855 50.4544 72.935 49.6644 74.535 48.2244V50.0244H80.535V49.3944H79.955Z" fill="#02033B"/>
<path fill-rule="evenodd" clip-rule="evenodd" d="M35.125 64.1044C35.265 65.2044 34.495 66.2044 33.405 66.3444C33.165 66.3744 32.925 66.3644 32.695 66.3144C30.815 66.3144 30.295 64.3144 30.295 62.0944C30.295 59.6544 30.855 57.9544 32.865 57.9544C33.765 57.8944 34.615 58.4044 34.995 59.2244C35.125 59.6044 35.175 60.0244 35.125 60.4244V64.1044ZM38.195 66.5144C37.585 66.5144 37.385 66.2144 37.385 65.7044V52.9044L33.615 53.3044V53.6544L35.125 53.5644V58.6344C34.625 57.8544 33.785 57.3544 32.865 57.3044C31.455 57.2144 30.065 57.6944 29.015 58.6444C27.995 59.6244 27.455 60.9944 27.525 62.4044C27.525 65.1744 28.995 67.1044 31.825 67.1044C33.045 67.1044 34.225 66.6444 35.125 65.8144V66.8144H38.505V66.4544H38.195V66.5144Z" fill="#02033B"/>
<path fill-rule="evenodd" clip-rule="evenodd" d="M49.725 63.2244C48.615 63.2244 47.985 62.3244 47.915 60.7244C47.845 59.1244 48.755 58.2744 49.645 58.2744C50.455 58.2744 51.375 58.8244 51.345 60.7244C51.345 62.2644 50.855 63.2144 49.705 63.2244M49.825 66.9044C51.685 66.9044 52.705 67.3244 52.645 68.6944C52.655 69.9644 51.635 71.0044 50.365 71.0244C50.265 71.0244 50.175 71.0244 50.075 71.0244C48.395 71.0244 47.365 70.1344 47.325 68.6244C47.305 68.1344 47.525 67.6544 47.925 67.3644C48.485 66.9844 49.175 66.8344 49.845 66.9244M52.845 57.4644C53.485 57.4644 53.465 57.9244 54.035 58.1944C54.515 58.4144 55.085 58.2244 55.335 57.7644C55.395 57.6444 55.425 57.5144 55.435 57.3744C55.435 56.8144 55.055 56.3744 54.255 56.3744C53.205 56.4744 52.255 57.0544 51.685 57.9444C51.085 57.7244 50.455 57.6144 49.815 57.6044C46.875 57.6044 45.665 58.7744 45.685 60.7044C45.675 62.0944 46.665 63.2844 48.025 63.5344C46.925 63.6844 46.025 64.3244 46.025 65.0844C46.025 66.1744 47.465 66.6744 48.295 66.7344C47.495 66.8144 45.735 66.8544 45.615 68.7344C45.495 70.6144 47.485 71.6444 49.705 71.6644C53.345 71.6644 54.765 70.0644 54.765 67.9644C54.765 65.8644 53.015 65.2144 51.035 65.2144H49.265C47.955 65.2144 47.555 64.7744 47.555 64.4544C47.555 63.9244 48.145 63.7044 48.395 63.6244C48.645 63.5444 49.395 63.6844 49.615 63.6844C51.405 63.6844 53.615 62.9544 53.615 60.6844C53.605 60.2544 53.505 59.8244 53.325 59.4344L53.235 59.2644C53.165 59.1544 53.085 59.0544 53.005 58.9544L52.895 58.8344L52.545 58.4944C52.375 58.3744 52.205 58.2544 52.025 58.1444C52.185 57.8044 52.485 57.5544 52.845 57.4544" fill="#02033B"/>
</g>
<defs>
<clipPath id="clip0_8_74">
<rect width="130" height="46.52" fill="white" transform="translate(0.125 25.2244)"/>
</clipPath>
</defs>
</svg>
