<svg width="131" height="96" viewBox="0 0 131 96" fill="none" xmlns="http://www.w3.org/2000/svg">
<g clip-path="url(#clip0_8_100)">
<path d="M45.815 42.4293V39.4293H33.225V42.4293H37.605V54.4293H33.225V57.4293H45.815V54.4293H41.025V42.4293H45.815Z" fill="#02033B"/>
<path d="M66.715 42.5493H61.715V47.4893C61.715 47.4893 64.425 47.4093 66.655 47.4093C68.885 47.4093 69.445 46.9293 69.445 44.6993C69.445 42.1493 66.735 42.5393 66.735 42.5393" fill="#02033B"/>
<path d="M52.225 61.7494H78.225V35.2194H52.225V61.7494ZM73.015 53.0594V57.2194H69.425V53.3194C69.425 53.3194 69.425 50.3194 67.355 50.3194C65.285 50.3194 61.695 50.3994 61.695 50.3994V57.3294H58.195V39.4394H68.555C70.885 39.3094 72.885 41.0894 73.015 43.4294C73.015 43.4294 73.015 43.4294 73.015 43.4394C73.035 43.6494 73.035 43.8594 73.015 44.0694C73.015 48.9294 70.315 49.1694 70.315 49.1694C70.315 49.1694 73.015 49.3294 73.015 53.0694" fill="#02033B"/>
<path d="M83.045 39.4393V42.4393H85.515V54.4393H83.045V57.3893H98.265V51.5493H95.265V54.4193H88.785V49.5593H93.565V46.6093H88.785V42.3893H94.995V45.2193H98.265V39.4393H83.045Z" fill="#02033B"/>
<path d="M118.975 42.4694H113.555V54.4694H119.215C121.925 54.4694 122.005 50.9594 122.005 50.9594V46.2894C122.005 42.2294 119.005 42.4694 119.005 42.4694" fill="#02033B"/>
<path d="M104.125 61.7494H130.125V35.2194H104.125V61.7494ZM119.425 57.5194C112.895 57.5194 109.945 57.5994 109.945 57.5994V39.5194H117.665C117.665 39.5194 125.665 38.6394 125.665 45.8094V50.8094C125.665 50.8094 125.985 57.4994 119.455 57.4994" fill="#02033B"/>
<path d="M0.125 61.7494H26.175V35.2194H0.125V61.7494ZM20.835 57.3594H16.375L13.505 44.3594L10.395 57.4394H6.015L2.355 39.5194H5.945L8.405 53.1394L11.595 39.5194L15.495 39.5994L18.685 53.3794L21.125 39.5194H24.545L20.835 57.3594Z" fill="#02033B"/>
</g>
<defs>
<clipPath id="clip0_8_100">
<rect width="130" height="26.53" fill="white" transform="translate(0.125 35.2194)"/>
</clipPath>
</defs>
</svg>
