<svg width="131" height="83" viewBox="0 0 131 83" fill="none" xmlns="http://www.w3.org/2000/svg">
<g clip-path="url(#clip0_8_94)">
<path fill-rule="evenodd" clip-rule="evenodd" d="M113.795 46.3543C111.495 48.3143 108.555 49.3843 105.535 49.3543C99.2551 49.3543 95.1851 44.9043 95.1851 38.0143C95.1851 34.0743 96.0051 31.4643 97.9251 29.3243C99.6451 27.3443 102.185 26.2543 104.805 26.3743C107.135 26.3043 109.405 27.1543 111.125 28.7243C113.125 30.7743 114.035 33.7243 114.035 38.3043V39.6343H101.395V39.8043C101.395 43.1843 103.055 45.1143 106.015 45.1143C108.065 45.0743 110.045 44.3043 111.575 42.9343L113.795 46.3543ZM108.125 35.4443V35.2043C108.245 34.0643 108.005 32.9143 107.445 31.9143C106.905 31.0543 105.935 30.5643 104.925 30.6343C102.745 30.6343 101.505 32.3443 101.505 35.3843V35.4643L108.125 35.4443Z" fill="#02033B"/>
<path fill-rule="evenodd" clip-rule="evenodd" d="M128.545 30.8244H124.865V41.8244C124.865 44.6044 125.375 45.3344 127.345 45.3344C128.045 45.2944 128.735 45.1444 129.395 44.9144L130.125 48.3344C128.655 48.9844 127.065 49.3244 125.455 49.3344C122.555 49.3344 120.235 48.0544 119.555 46.1344C119.195 45.0444 119.065 43.8844 119.175 42.7444V30.8144H116.995V26.8844H119.175C119.135 25.1544 119.205 23.4244 119.385 21.7044L125.205 20.2544C124.985 22.4544 124.865 24.6744 124.865 26.8844H130.005L128.545 30.8244Z" fill="#02033B"/>
<path fill-rule="evenodd" clip-rule="evenodd" d="M86.495 19.0543L86.625 31.2043C86.625 33.2043 86.875 37.0643 87.095 39.3843C86.235 36.4943 85.145 33.6643 83.845 30.9443L78.125 19.0443H71.515V32.5543L56.435 0.204346L0.125 26.4643L26.375 82.7743L82.685 56.5143L77.235 44.8343L77.125 36.0843C77.125 33.6043 77.035 30.0843 76.825 27.6543C77.385 29.4943 79.185 33.6543 80.825 37.4143L85.925 48.7943H92.165V19.0543H86.495ZM54.205 48.4843H49.405V42.0843H52.745C57.255 42.0843 61.105 39.6143 61.105 33.9543C61.105 28.7543 57.675 25.8243 52.825 25.8243H48.595V40.3343L43.125 48.4843H11.725L27.125 25.8343H13.045L17.325 19.4343H40.555L25.255 42.0843H41.045V19.4343H54.205C62.225 19.1443 68.965 25.4043 69.255 33.4243C69.545 41.4443 63.285 48.1843 55.265 48.4743C55.125 48.4743 54.975 48.4743 54.835 48.4743H54.205" fill="#02033B"/>
</g>
<defs>
<clipPath id="clip0_8_94">
<rect width="130" height="82.56" fill="white" transform="translate(0.125 0.204346)"/>
</clipPath>
</defs>
</svg>
